<svg xmlns="http://www.w3.org/2000/svg" version="1.1" xmlns:xlink="http://www.w3.org/1999/xlink" xmlns:svgjs="http://svgjs.dev/svgjs" width="1500" height="1500" viewBox="0 0 1500 1500"><rect width="1500" height="1500" fill="#ffffff"></rect><g transform="matrix(0.6666666666666666,0,0,0.6666666666666666,249.39393939393938,624.3254351148199)"><svg viewBox="0 0 396 100" data-background-color="#ffffff" preserveAspectRatio="xMidYMid meet" height="378" width="1500" xmlns="http://www.w3.org/2000/svg" xmlns:xlink="http://www.w3.org/1999/xlink"><g id="tight-bounds" transform="matrix(1,0,0,1,0.2400000000000091,-0.1291409185793384)"><svg viewBox="0 0 395.52 100.25828183715869" height="100.25828183715869" width="395.52"><g><svg viewBox="0 0 517.9638831102321 131.29593692944675" height="100.25828183715869" width="395.52"><g></g><g transform="matrix(1,0,0,1,122.44388311023218,10.941328077453896)"><svg viewBox="0 0 395.52 109.41328077453896" height="109.41328077453896" width="395.52"><g id="textblocktransform"><svg viewBox="0 0 395.52 109.41328077453896" height="109.41328077453896" width="395.52" id="textblock"><g><svg viewBox="0 0 395.52 72.58635060217931" height="72.58635060217931" width="395.52"><g transform="matrix(1,0,0,1,0,0)"><svg width="395.52" viewBox="4.25 -37.45 261.52 48.00000000000001" height="72.58635060217931" data-palette-color="url(#230416f9-999e-464b-bc61-ad737fd0345c)"></svg></g></svg></g><g transform="matrix(1,0,0,1,0,89.72224590693939)"><svg viewBox="0 0 232.20979199999996 19.691034867599566" height="19.691034867599566" width="232.20979199999996"><g transform="matrix(1,0,0,1,0,0)"><svg width="232.20979199999996" viewBox="4.22 -35.39 422.65999999999997 35.85" height="19.691034867599566" data-palette-color="#111111"><path d="M25.81-11.6L25.81-33.27 29.68-33.27 29.68-11.73Q29.68-6.04 26.24-2.79 22.8 0.46 16.81 0.46 10.82 0.46 7.51-2.81L7.51-2.81Q4.22-6.09 4.22-11.83L4.22-11.83 4.22-33.27 8.09-33.27 8.09-11.55Q8.09-7.36 10.38-5.14 12.66-2.93 16.96-2.93 21.26-2.93 23.53-5.18 25.81-7.43 25.81-11.6L25.81-11.6ZM58.77-16.25L58.77 0 54.98 0 54.98-16.13Q54.98-19.21 53.59-20.69 52.2-22.17 49.26-22.17L49.26-22.17Q45.35-22.17 43.53-20.06 41.71-17.95 41.71-13.07L41.71-13.07 41.71 0 37.91 0 37.91-24.92 41-24.92 41.61-21.51 41.78-21.51Q42.94-23.33 45.04-24.36 47.14-25.38 49.72-25.38L49.72-25.38Q54.27-25.38 56.52-23.18 58.77-20.98 58.77-16.25L58.77-16.25ZM66.5-35.39L70.29-35.39 70.29 0 66.5 0 66.5-35.39ZM88.82 0.46L88.82 0.46Q83.28 0.46 80.07-2.91L80.07-2.91Q76.89-6.27 76.89-12.29 76.89-18.3 79.85-21.84L79.85-21.84Q82.85-25.38 87.69-25.38 92.54-25.38 95.27-22.3 98-19.21 98-14.18L98-14.18 98-11.78 80.81-11.78Q80.93-7.41 83.03-5.12 85.13-2.83 89.09-2.83 93.04-2.83 96.91-4.52L96.91-4.52 96.91-1.16Q94.96-0.3 93.14 0.08 91.32 0.46 88.82 0.46ZM80.91-14.86L93.95-14.86Q93.95-18.43 92.36-20.32 90.77-22.22 87.8-22.22 84.83-22.22 83.02-20.27 81.21-18.33 80.91-14.86L80.91-14.86ZM106.51-6.85L106.51-6.85Q106.51-4.83 107.75-3.74 108.99-2.65 111.21-2.65L111.21-2.65Q114.78-2.65 116.77-4.59 118.77-6.52 118.77-10.01L118.77-10.01 118.77-12.26 115.01-12.11Q110.51-11.93 108.51-10.69 106.51-9.45 106.51-6.85ZM122.56-17.01L122.56 0 119.76 0 119-3.54 118.82-3.54Q116.95-1.21 115.11-0.38 113.26 0.46 110.48 0.46L110.48 0.46Q106.74 0.46 104.65-1.47 102.57-3.39 102.57-6.9L102.57-6.9Q102.57-14.43 114.63-14.81L114.63-14.81 118.87-14.94 118.87-16.48Q118.87-19.46 117.61-20.84 116.34-22.22 113.4-22.22 110.46-22.22 106.51-20.32L106.51-20.32 105.35-23.21Q109.29-25.35 113.79-25.35 118.29-25.35 120.43-23.36 122.56-21.36 122.56-17.01L122.56-17.01ZM146.42-6.8L146.42-6.8Q146.42-3.31 143.83-1.43 141.24 0.46 136.41 0.46 131.59 0.46 128.8-1.11L128.8-1.11 128.8-4.63Q132.7-2.65 136.64-2.65L136.64-2.65Q142.78-2.65 142.78-6.47L142.78-6.47Q142.78-7.94 141.49-8.99 140.2-10.04 136.69-11.36 133.18-12.69 131.64-13.68L131.64-13.68Q128.73-15.65 128.73-18.76 128.73-21.87 131.21-23.62 133.68-25.38 137.89-25.38 142.1-25.38 145.89-23.76L145.89-23.76 144.55-20.68Q140.84-22.22 137.97-22.22 135.1-22.22 133.72-21.4 132.34-20.58 132.34-19.06L132.34-19.06Q132.34-18.1 132.84-17.38 133.33-16.66 134.47-16.01 135.6-15.37 138.87-14.18L138.87-14.18Q143.31-12.54 144.87-10.91 146.42-9.28 146.42-6.8ZM173.39-16.25L173.39 0 169.6 0 169.6-16.13Q169.6-19.21 168.21-20.69 166.82-22.17 163.89-22.17L163.89-22.17Q159.92-22.17 158.12-20.02 156.33-17.87 156.33-13.04L156.33-13.04 156.33 0 152.54 0 152.54-35.39 156.33-35.39 156.33-24.67Q156.33-22.65 156.15-21.49L156.15-21.49 156.38-21.49Q157.52-23.31 159.58-24.33 161.64-25.35 164.24-25.35L164.24-25.35Q168.87-25.35 171.13-23.15 173.39-20.96 173.39-16.25L173.39-16.25ZM216.54-33.27L220.4-33.27 220.4 0 216.54 0 216.54-15.65 199.02-15.65 199.02 0 195.15 0 195.15-33.27 199.02-33.27 199.02-19.11 216.54-19.11 216.54-33.27ZM231.04-6.85L231.04-6.85Q231.04-4.83 232.28-3.74 233.52-2.65 235.75-2.65L235.75-2.65Q239.31-2.65 241.31-4.59 243.3-6.52 243.3-10.01L243.3-10.01 243.3-12.26 239.54-12.11Q235.04-11.93 233.04-10.69 231.04-9.45 231.04-6.85ZM247.1-17.01L247.1 0 244.29 0 243.53-3.54 243.35-3.54Q241.48-1.21 239.64-0.38 237.79 0.46 235.01 0.46L235.01 0.46Q231.27 0.46 229.19-1.47 227.1-3.39 227.1-6.9L227.1-6.9Q227.1-14.43 239.16-14.81L239.16-14.81 243.41-14.94 243.41-16.48Q243.41-19.46 242.14-20.84 240.88-22.22 237.93-22.22 234.99-22.22 231.04-20.32L231.04-20.32 229.88-23.21Q233.82-25.35 238.32-25.35 242.82-25.35 244.96-23.36 247.1-21.36 247.1-17.01L247.1-17.01ZM275.71-16.25L275.71 0 271.92 0 271.92-16.13Q271.92-19.21 270.53-20.69 269.14-22.17 266.2-22.17L266.2-22.17Q262.29-22.17 260.47-20.06 258.65-17.95 258.65-13.07L258.65-13.07 258.65 0 254.85 0 254.85-24.92 257.94-24.92 258.54-21.51 258.72-21.51Q259.88-23.33 261.98-24.36 264.08-25.38 266.66-25.38L266.66-25.38Q271.21-25.38 273.46-23.18 275.71-20.98 275.71-16.25L275.71-16.25ZM287.74-19.65Q285.97-17.09 285.97-12.34 285.97-7.58 287.73-5.14 289.48-2.7 292.87-2.7L292.87-2.7Q296.74-2.7 298.48-4.82 300.23-6.93 300.23-11.6L300.23-11.6 300.23-12.39Q300.23-17.72 298.46-19.97 296.69-22.22 292.82-22.22L292.82-22.22Q289.51-22.22 287.74-19.65ZM300.23-3.34Q297.6 0.46 292.55 0.46 287.51 0.46 284.78-2.88L284.78-2.88Q282.05-6.27 282.05-12.41 282.05-18.55 284.78-21.97 287.51-25.38 292.5-25.38 297.5-25.38 300.17-21.71L300.17-21.71 300.48-21.71 300.3-23.51 300.23-25.25 300.23-35.39 303.99-35.39 303.99 0 300.93 0 300.43-3.34 300.23-3.34ZM344.76-8.85L344.76-8.85Q344.76-4.45 341.59-2 338.42 0.46 332.72 0.46 327.02 0.46 323.83-1.06L323.83-1.06 323.83-4.8Q328.33-2.93 333.08-2.93L333.08-2.93Q336.9-2.93 338.88-4.37 340.87-5.81 340.87-8.49L340.87-8.49Q340.87-10.21 340.17-11.3 339.48-12.39 337.83-13.35 336.19-14.31 332.9-15.47L332.9-15.47Q328.28-17.11 326.27-19.39 324.26-21.66 324.26-25.43 324.26-29.2 327.14-31.47L327.14-31.47Q330.07-33.75 334.91-33.75 339.76-33.75 343.93-31.93L343.93-31.93 342.71-28.54Q338.59-30.28 334.72-30.28L334.72-30.28Q331.64-30.28 329.91-28.96 328.18-27.63 328.18-25.3L328.18-25.3Q328.18-23.53 328.8-22.47 329.42-21.41 330.96-20.42L330.96-20.42Q332.55-19.46 335.61-18.4L335.61-18.4Q340.87-16.53 342.79-14.38L342.79-14.38Q344.76-12.26 344.76-8.85ZM354.74-9.33L354.74 0 351 0 351-35.39 354.74-35.39 354.74-16.63Q354.74-15.22 354.57-12.77L354.57-12.77 354.74-12.77Q355.78-14.23 357.73-16.41L357.73-16.41 365.76-24.92 370.26-24.92 360.15-14.31 370.97 0 366.4 0 357.57-11.78 354.74-9.33ZM378.96-29.82Q378.32-29.17 377.34-29.17 376.35-29.17 375.75-29.82 375.14-30.46 375.14-31.7 375.14-32.94 375.75-33.57 376.35-34.2 377.34-34.2 378.32-34.2 378.96-33.56 379.59-32.91 379.59-31.69 379.59-30.46 378.96-29.82ZM375.44-24.92L379.23-24.92 379.23 0 375.44 0 375.44-24.92ZM387.22-35.39L391.01-35.39 391.01 0 387.22 0 387.22-35.39ZM399-35.39L402.79-35.39 402.79 0 399 0 399-35.39ZM426.88-6.8L426.88-6.8Q426.88-3.31 424.29-1.43 421.69 0.46 416.87 0.46 412.04 0.46 409.26-1.11L409.26-1.11 409.26-4.63Q413.15-2.65 417.09-2.65L417.09-2.65Q423.24-2.65 423.24-6.47L423.24-6.47Q423.24-7.94 421.95-8.99 420.66-10.04 417.14-11.36 413.63-12.69 412.09-13.68L412.09-13.68Q409.18-15.65 409.18-18.76 409.18-21.87 411.66-23.62 414.14-25.38 418.34-25.38 422.55-25.38 426.35-23.76L426.35-23.76 425.01-20.68Q421.29-22.22 418.42-22.22 415.55-22.22 414.17-21.4 412.8-20.58 412.8-19.06L412.8-19.06Q412.8-18.1 413.29-17.38 413.78-16.66 414.92-16.01 416.06-15.37 419.32-14.18L419.32-14.18Q423.77-12.54 425.32-10.91 426.88-9.28 426.88-6.8Z" opacity="1" transform="matrix(1,0,0,1,0,0)" fill="#111111" class="slogan-text-1" data-fill-palette-color="secondary" id="text-1"></path></svg></g></svg></g></svg></g></svg></g><g transform="matrix(1,0,0,1,0,27.84567995712016)"><svg viewBox="0 0 81.62618049429366 75.60457701520643" height="75.60457701520643" width="81.62618049429366"><g><svg xmlns="http://www.w3.org/2000/svg" xmlns:xlink="http://www.w3.org/1999/xlink" version="1.1" x="0" y="0" viewBox="1.5 5.5 61 56.5" style="enable-background:new 0 0 64 64;" xml:space="preserve" height="75.60457701520643" width="81.62618049429366" class="icon-icon-0" data-fill-palette-color="accent" id="icon-0"><rect x="27" y="34" width="10" height="2" fill="#000000" data-fill-palette-color="accent"></rect><rect x="26" y="30" width="12" height="2" fill="#000000" data-fill-palette-color="accent"></rect><polygon points="32,5.5 30.5,9 33.5,9 " fill="#000000" data-fill-palette-color="accent"></polygon><rect x="29" y="11" width="6" height="2" fill="#000000" data-fill-palette-color="accent"></rect><path d="M13.6 49l-1.4 7h39.6l-1.4-7C49.1 42.6 43.5 38 37 38H27C20.5 38 14.9 42.6 13.6 49zM17 54h-2v-2h2V54zM47 52h2v2h-2V52zM43 52h2v2h-2V52zM39 52h2v2h-2V52zM35 52h2v2h-2V52zM31 52h2v2h-2V52zM27 52h2v2h-2V52zM23 52h2v2h-2V52zM19 52h2v2h-2V52z" fill="#000000" data-fill-palette-color="accent"></path><polygon points="59,58 5,58 5,60 3,60 3,62 61,62 61,60 59,60 " fill="#000000" data-fill-palette-color="accent"></polygon><polygon points="62.5,34.2 45,23 45,23 44.9,23 33.5,15.8 33.3,15 30.7,15 30.5,15.8 19.1,23 19,23 19,23 1.5,34.2 2.5,35.8 3,35.5   3,39 5,39 5,34.3 7,33 7,37 9,37 9,31.8 11,30.5 11,34 13,34 13,29.2 15,28 15,31 17,31 17,26.7 19,25.4 19,28 21,28 21,24.1   23,22.9 23,25 25,25 25,21.6 29.5,18.8 27,26.2 27,28 37,28 37,26.2 34.5,18.8 39,21.6 39,25 41,25 41,22.9 43,24.1 43,28 45,28   45,25.4 47,26.7 47,31 49,31 49,28 51,29.2 51,34 53,34 53,30.5 55,31.8 55,37 57,37 57,33 59,34.3 59,39 61,39 61,35.5 61.5,35.8   " fill="#000000" data-fill-palette-color="accent"></polygon></svg></g></svg></g></svg></g><defs></defs><mask id="4f36ecd8-94fb-4dff-a347-df22246e2d23"><g id="SvgjsG2225"><svg viewBox="0 0 395.52 100.25828183715869" height="100.25828183715869" width="395.52"><g><svg viewBox="0 0 517.9638831102321 131.29593692944675" height="100.25828183715869" width="395.52"><g><rect width="6.545912006418352" height="131.29593692944675" x="98.76207579905375" y="0" fill="white" opacity="1" stroke-width="0" stroke="transparent" fill-opacity="1" class="rect-qz-0" rx="1%" id="SvgjsRect2224" data-palette-color="url(#230416f9-999e-464b-bc61-ad737fd0345c)"></rect></g><g transform="matrix(1,0,0,1,122.44388311023218,10.941328077453896)"><svg viewBox="0 0 395.52 109.41328077453896" height="109.41328077453896" width="395.52"><g id="SvgjsG2223"><svg viewBox="0 0 395.52 109.41328077453896" height="109.41328077453896" width="395.52" id="SvgjsSvg2222"><g><svg viewBox="0 0 395.52 72.58635060217931" height="72.58635060217931" width="395.52"><g transform="matrix(1,0,0,1,0,0)"><svg width="395.52" viewBox="4.25 -37.45 261.52 48.00000000000001" height="72.58635060217931" data-palette-color="url(#230416f9-999e-464b-bc61-ad737fd0345c)"><path d="M26.1-34.4L26.1 0 20.1 0 7.85-29.55Q8.45-22.95 8.45-16.7L8.45-16.7 8.45 0 4.25 0 4.25-34.4 10.2-34.4 22.5-4.8Q22.3-6.55 22.08-9.6 21.85-12.65 21.85-15.65L21.85-15.65 21.85-34.4 26.1-34.4ZM52.85-13.95Q52.85-12.9 52.75-11.6L52.75-11.6 37.45-11.6Q37.65-7 39.3-4.98 40.95-2.95 43.8-2.95L43.8-2.95Q45.6-2.95 47.02-3.5 48.45-4.05 50-5.3L50-5.3 52-2.65Q48.3 0.65 43.6 0.65L43.6 0.65Q38.45 0.65 35.62-2.93 32.8-6.5 32.8-12.95L32.8-12.95Q32.8-19.4 35.5-23.18 38.2-26.95 43-26.95L43-26.95Q47.75-26.95 50.3-23.58 52.85-20.2 52.85-13.95L52.85-13.95ZM48.5-14.75L48.5-15.3Q48.5-23.55 43.05-23.55L43.05-23.55Q40.55-23.55 39.1-21.48 37.65-19.4 37.45-14.75L37.45-14.75 48.5-14.75ZM70.45-26.95Q74.75-26.95 76.92-23.4 79.09-19.85 79.09-13.25L79.09-13.25Q79.09-6.85 76.67-3.1 74.25 0.65 69.9 0.65L69.9 0.65Q66 0.65 63.59-2.5L63.59-2.5 63.59 10 59.09 10.55 59.09-26.3 63.05-26.3 63.3-22.75Q66-26.95 70.45-26.95L70.45-26.95ZM68.84-2.95Q74.4-2.95 74.4-13.2L74.4-13.2Q74.4-18.55 73.12-20.98 71.84-23.4 69.25-23.4L69.25-23.4Q67.5-23.4 66.15-22.35 64.8-21.3 63.59-19.5L63.59-19.5 63.59-6.2Q65.65-2.95 68.84-2.95L68.84-2.95ZM102.09-6Q102.09-4.4 102.54-3.63 102.99-2.85 103.94-2.45L103.94-2.45 102.99 0.6Q101.04 0.3 99.94-0.6 98.84-1.5 98.39-3.35L98.39-3.35Q95.84 0.65 91.24 0.65L91.24 0.65Q87.74 0.65 85.69-1.53 83.64-3.7 83.64-7.35L83.64-7.35Q83.64-11.55 86.39-13.75 89.14-15.95 94.24-15.95L94.24-15.95 97.64-15.95 97.64-18.2Q97.64-20.95 96.52-22.18 95.39-23.4 92.84-23.4L92.84-23.4Q90.09-23.4 86.44-22L86.44-22 85.34-25.15Q89.74-26.95 93.54-26.95L93.54-26.95Q102.09-26.95 102.09-18.4L102.09-18.4 102.09-6ZM92.29-2.75Q95.79-2.75 97.64-6.85L97.64-6.85 97.64-13.05 94.74-13.05Q88.24-13.05 88.24-7.6L88.24-7.6Q88.24-5.25 89.29-4 90.34-2.75 92.29-2.75L92.29-2.75ZM115.14 0.65Q112.74 0.65 111.34-0.8 109.94-2.25 109.94-4.85L109.94-4.85 109.94-36.95 114.44-37.45 114.44-5Q114.44-3.05 116.04-3.05L116.04-3.05Q116.69-3.05 117.49-3.35L117.49-3.35 118.49-0.2Q116.89 0.65 115.14 0.65L115.14 0.65ZM134.99-35.05Q137.69-35.05 139.69-34.23 141.69-33.4 143.64-31.65L143.64-31.65 141.24-28.85Q139.79-30.1 138.36-30.7 136.94-31.3 135.24-31.3L135.24-31.3Q131.34-31.3 129.04-27.98 126.74-24.65 126.74-17.25L126.74-17.25Q126.74-10.05 129.04-6.63 131.34-3.2 135.24-3.2L135.24-3.2Q137.19-3.2 138.59-3.9 139.99-4.6 141.64-5.95L141.64-5.95 143.99-3.2Q140.24 0.65 134.99 0.65L134.99 0.65Q131.14 0.65 128.16-1.35 125.19-3.35 123.51-7.38 121.84-11.4 121.84-17.25L121.84-17.25Q121.84-23.05 123.56-27.05 125.29-31.05 128.26-33.05 131.24-35.05 134.99-35.05L134.99-35.05ZM159.59-26.9Q160.89-26.9 161.84-26.6L161.84-26.6 161.09-22.25Q160.14-22.55 159.04-22.55L159.04-22.55Q156.84-22.55 155.46-20.8 154.09-19.05 153.29-15.45L153.29-15.45 153.29 0 148.79 0 148.79-26.3 152.69-26.3 153.04-21.1Q154.99-26.9 159.59-26.9L159.59-26.9ZM182.63-6Q182.63-4.4 183.08-3.63 183.53-2.85 184.48-2.45L184.48-2.45 183.53 0.6Q181.58 0.3 180.48-0.6 179.38-1.5 178.93-3.35L178.93-3.35Q176.38 0.65 171.78 0.65L171.78 0.65Q168.28 0.65 166.23-1.53 164.18-3.7 164.18-7.35L164.18-7.35Q164.18-11.55 166.93-13.75 169.68-15.95 174.78-15.95L174.78-15.95 178.18-15.95 178.18-18.2Q178.18-20.95 177.06-22.18 175.93-23.4 173.38-23.4L173.38-23.4Q170.63-23.4 166.98-22L166.98-22 165.88-25.15Q170.28-26.95 174.08-26.95L174.08-26.95Q182.63-26.95 182.63-18.4L182.63-18.4 182.63-6ZM172.83-2.75Q176.33-2.75 178.18-6.85L178.18-6.85 178.18-13.05 175.28-13.05Q168.78-13.05 168.78-7.6L168.78-7.6Q168.78-5.25 169.83-4 170.88-2.75 172.83-2.75L172.83-2.75ZM199.33-33.9Q197.48-33.9 196.61-33 195.73-32.1 195.73-30.2L195.73-30.2 195.73-26.3 201.63-26.3 201.13-22.9 195.73-22.9 195.73 0 191.23 0 191.23-22.9 187.33-22.9 187.33-26.3 191.23-26.3 191.23-30.15Q191.23-33.45 193.25-35.45 195.28-37.45 198.88-37.45L198.88-37.45Q201.88-37.45 204.78-36L204.78-36 203.43-32.9Q201.38-33.9 199.33-33.9L199.33-33.9ZM216.83-4.05L218.48-1.15Q215.98 0.65 212.93 0.65L212.93 0.65Q209.73 0.65 208-1.2 206.28-3.05 206.28-6.4L206.28-6.4 206.28-22.9 202.53-22.9 202.53-26.3 206.28-26.3 206.28-32.35 210.78-32.9 210.78-26.3 216.58-26.3 216.08-22.9 210.78-22.9 210.78-6.45Q210.78-3.05 213.63-3.05L213.63-3.05Q214.48-3.05 215.2-3.3 215.93-3.55 216.83-4.05L216.83-4.05ZM240.83-13.95Q240.83-12.9 240.73-11.6L240.73-11.6 225.43-11.6Q225.63-7 227.28-4.98 228.93-2.95 231.78-2.95L231.78-2.95Q233.58-2.95 235-3.5 236.43-4.05 237.98-5.3L237.98-5.3 239.98-2.65Q236.28 0.65 231.58 0.65L231.58 0.65Q226.43 0.65 223.6-2.93 220.78-6.5 220.78-12.95L220.78-12.95Q220.78-19.4 223.48-23.18 226.18-26.95 230.98-26.95L230.98-26.95Q235.73-26.95 238.28-23.58 240.83-20.2 240.83-13.95L240.83-13.95ZM236.48-14.75L236.48-15.3Q236.48-23.55 231.03-23.55L231.03-23.55Q228.53-23.55 227.08-21.48 225.63-19.4 225.43-14.75L225.43-14.75 236.48-14.75ZM261.27-37.45L265.77-36.95 265.77 0 261.77 0 261.47-3.45Q258.92 0.65 254.62 0.65L254.62 0.65Q250.32 0.65 247.95-3 245.57-6.65 245.57-13.05L245.57-13.05Q245.57-17.2 246.75-20.35 247.92-23.5 250.07-25.23 252.22-26.95 255.02-26.95L255.02-26.95Q258.77-26.95 261.27-23.8L261.27-23.8 261.27-37.45ZM255.67-2.9Q257.47-2.9 258.8-3.9 260.12-4.9 261.27-6.85L261.27-6.85 261.27-20.05Q259.02-23.4 256.02-23.4L256.02-23.4Q253.37-23.4 251.82-20.85 250.27-18.3 250.32-13.15L250.32-13.15Q250.32-7.9 251.72-5.4 253.12-2.9 255.67-2.9L255.67-2.9Z" opacity="1" transform="matrix(1,0,0,1,0,0)" fill="white" class="wordmark-text-0" id="SvgjsPath2221"></path></svg></g></svg></g><g transform="matrix(1,0,0,1,0,89.72224590693939)"><svg viewBox="0 0 232.20979199999996 19.691034867599566" height="19.691034867599566" width="232.20979199999996"><g transform="matrix(1,0,0,1,0,0)"><svg width="232.20979199999996" viewBox="4.22 -35.39 422.65999999999997 35.85" height="19.691034867599566" data-palette-color="#111111"><path d="M25.81-11.6L25.81-33.27 29.68-33.27 29.68-11.73Q29.68-6.04 26.24-2.79 22.8 0.46 16.81 0.46 10.82 0.46 7.51-2.81L7.51-2.81Q4.22-6.09 4.22-11.83L4.22-11.83 4.22-33.27 8.09-33.27 8.09-11.55Q8.09-7.36 10.38-5.14 12.66-2.93 16.96-2.93 21.26-2.93 23.53-5.18 25.81-7.43 25.81-11.6L25.81-11.6ZM58.77-16.25L58.77 0 54.98 0 54.98-16.13Q54.98-19.21 53.59-20.69 52.2-22.17 49.26-22.17L49.26-22.17Q45.35-22.17 43.53-20.06 41.71-17.95 41.71-13.07L41.71-13.07 41.71 0 37.91 0 37.91-24.92 41-24.92 41.61-21.51 41.78-21.51Q42.94-23.33 45.04-24.36 47.14-25.38 49.72-25.38L49.72-25.38Q54.27-25.38 56.52-23.18 58.77-20.98 58.77-16.25L58.77-16.25ZM66.5-35.39L70.29-35.39 70.29 0 66.5 0 66.5-35.39ZM88.82 0.46L88.82 0.46Q83.28 0.46 80.07-2.91L80.07-2.91Q76.89-6.27 76.89-12.29 76.89-18.3 79.85-21.84L79.85-21.84Q82.85-25.38 87.69-25.38 92.54-25.38 95.27-22.3 98-19.21 98-14.18L98-14.18 98-11.78 80.81-11.78Q80.93-7.41 83.03-5.12 85.13-2.83 89.09-2.83 93.04-2.83 96.91-4.52L96.91-4.52 96.91-1.16Q94.96-0.3 93.14 0.08 91.32 0.46 88.82 0.46ZM80.91-14.86L93.95-14.86Q93.95-18.43 92.36-20.32 90.77-22.22 87.8-22.22 84.83-22.22 83.02-20.27 81.21-18.33 80.91-14.86L80.91-14.86ZM106.51-6.85L106.51-6.85Q106.51-4.83 107.75-3.74 108.99-2.65 111.21-2.65L111.21-2.65Q114.78-2.65 116.77-4.59 118.77-6.52 118.77-10.01L118.77-10.01 118.77-12.26 115.01-12.11Q110.51-11.93 108.51-10.69 106.51-9.45 106.51-6.85ZM122.56-17.01L122.56 0 119.76 0 119-3.54 118.82-3.54Q116.95-1.21 115.11-0.38 113.26 0.46 110.48 0.46L110.48 0.46Q106.74 0.46 104.65-1.47 102.57-3.39 102.57-6.9L102.57-6.9Q102.57-14.43 114.63-14.81L114.63-14.81 118.87-14.94 118.87-16.48Q118.87-19.46 117.61-20.84 116.34-22.22 113.4-22.22 110.46-22.22 106.51-20.32L106.51-20.32 105.35-23.21Q109.29-25.35 113.79-25.35 118.29-25.35 120.43-23.36 122.56-21.36 122.56-17.01L122.56-17.01ZM146.42-6.8L146.42-6.8Q146.42-3.31 143.83-1.43 141.24 0.46 136.41 0.46 131.59 0.46 128.8-1.11L128.8-1.11 128.8-4.63Q132.7-2.65 136.64-2.65L136.64-2.65Q142.78-2.65 142.78-6.47L142.78-6.47Q142.78-7.94 141.49-8.99 140.2-10.04 136.69-11.36 133.18-12.69 131.64-13.68L131.64-13.68Q128.73-15.65 128.73-18.76 128.73-21.87 131.21-23.62 133.68-25.38 137.89-25.38 142.1-25.38 145.89-23.76L145.89-23.76 144.55-20.68Q140.84-22.22 137.97-22.22 135.1-22.22 133.72-21.4 132.34-20.58 132.34-19.06L132.34-19.06Q132.34-18.1 132.84-17.38 133.33-16.66 134.47-16.01 135.6-15.37 138.87-14.18L138.87-14.18Q143.31-12.54 144.87-10.91 146.42-9.28 146.42-6.8ZM173.39-16.25L173.39 0 169.6 0 169.6-16.13Q169.6-19.21 168.21-20.69 166.82-22.17 163.89-22.17L163.89-22.17Q159.92-22.17 158.12-20.02 156.33-17.87 156.33-13.04L156.33-13.04 156.33 0 152.54 0 152.54-35.39 156.33-35.39 156.33-24.67Q156.33-22.65 156.15-21.49L156.15-21.49 156.38-21.49Q157.52-23.31 159.58-24.33 161.64-25.35 164.24-25.35L164.24-25.35Q168.87-25.35 171.13-23.15 173.39-20.96 173.39-16.25L173.39-16.25ZM216.54-33.27L220.4-33.27 220.4 0 216.54 0 216.54-15.65 199.02-15.65 199.02 0 195.15 0 195.15-33.27 199.02-33.27 199.02-19.11 216.54-19.11 216.54-33.27ZM231.04-6.85L231.04-6.85Q231.04-4.83 232.28-3.74 233.52-2.65 235.75-2.65L235.75-2.65Q239.31-2.65 241.31-4.59 243.3-6.52 243.3-10.01L243.3-10.01 243.3-12.26 239.54-12.11Q235.04-11.93 233.04-10.69 231.04-9.45 231.04-6.85ZM247.1-17.01L247.1 0 244.29 0 243.53-3.54 243.35-3.54Q241.48-1.21 239.64-0.38 237.79 0.46 235.01 0.46L235.01 0.46Q231.27 0.46 229.19-1.47 227.1-3.39 227.1-6.9L227.1-6.9Q227.1-14.43 239.16-14.81L239.16-14.81 243.41-14.94 243.41-16.48Q243.41-19.46 242.14-20.84 240.88-22.22 237.93-22.22 234.99-22.22 231.04-20.32L231.04-20.32 229.88-23.21Q233.82-25.35 238.32-25.35 242.82-25.35 244.96-23.36 247.1-21.36 247.1-17.01L247.1-17.01ZM275.71-16.25L275.71 0 271.92 0 271.92-16.13Q271.92-19.21 270.53-20.69 269.14-22.17 266.2-22.17L266.2-22.17Q262.29-22.17 260.47-20.06 258.65-17.95 258.65-13.07L258.65-13.07 258.65 0 254.85 0 254.85-24.92 257.94-24.92 258.54-21.51 258.72-21.51Q259.88-23.33 261.98-24.36 264.08-25.38 266.66-25.38L266.66-25.38Q271.21-25.38 273.46-23.18 275.71-20.98 275.71-16.25L275.71-16.25ZM287.74-19.65Q285.97-17.09 285.97-12.34 285.97-7.58 287.73-5.14 289.48-2.7 292.87-2.7L292.87-2.7Q296.74-2.7 298.48-4.82 300.23-6.93 300.23-11.6L300.23-11.6 300.23-12.39Q300.23-17.72 298.46-19.97 296.69-22.22 292.82-22.22L292.82-22.22Q289.51-22.22 287.74-19.65ZM300.23-3.34Q297.6 0.46 292.55 0.46 287.51 0.46 284.78-2.88L284.78-2.88Q282.05-6.27 282.05-12.41 282.05-18.55 284.78-21.97 287.51-25.38 292.5-25.38 297.5-25.38 300.17-21.71L300.17-21.71 300.48-21.71 300.3-23.51 300.23-25.25 300.23-35.39 303.99-35.39 303.99 0 300.93 0 300.43-3.34 300.23-3.34ZM344.76-8.85L344.76-8.85Q344.76-4.45 341.59-2 338.42 0.46 332.72 0.46 327.02 0.46 323.83-1.06L323.83-1.06 323.83-4.8Q328.33-2.93 333.08-2.93L333.08-2.93Q336.9-2.93 338.88-4.37 340.87-5.81 340.87-8.49L340.87-8.49Q340.87-10.21 340.17-11.3 339.48-12.39 337.83-13.35 336.19-14.31 332.9-15.47L332.9-15.47Q328.28-17.11 326.27-19.39 324.26-21.66 324.26-25.43 324.26-29.2 327.14-31.47L327.14-31.47Q330.07-33.75 334.91-33.75 339.76-33.75 343.93-31.93L343.93-31.93 342.71-28.54Q338.59-30.28 334.72-30.28L334.72-30.28Q331.64-30.28 329.91-28.96 328.18-27.63 328.18-25.3L328.18-25.3Q328.18-23.53 328.8-22.47 329.42-21.41 330.96-20.42L330.96-20.42Q332.55-19.46 335.61-18.4L335.61-18.4Q340.87-16.53 342.79-14.38L342.79-14.38Q344.76-12.26 344.76-8.85ZM354.74-9.33L354.74 0 351 0 351-35.39 354.74-35.39 354.74-16.63Q354.74-15.22 354.57-12.77L354.57-12.77 354.74-12.77Q355.78-14.23 357.73-16.41L357.73-16.41 365.76-24.92 370.26-24.92 360.15-14.31 370.97 0 366.4 0 357.57-11.78 354.74-9.33ZM378.96-29.82Q378.32-29.17 377.34-29.17 376.35-29.17 375.75-29.82 375.14-30.46 375.14-31.7 375.14-32.94 375.75-33.57 376.35-34.2 377.34-34.2 378.32-34.2 378.96-33.56 379.59-32.91 379.59-31.69 379.59-30.46 378.96-29.82ZM375.44-24.92L379.23-24.92 379.23 0 375.44 0 375.44-24.92ZM387.22-35.39L391.01-35.39 391.01 0 387.22 0 387.22-35.39ZM399-35.39L402.79-35.39 402.79 0 399 0 399-35.39ZM426.88-6.8L426.88-6.8Q426.88-3.31 424.29-1.43 421.69 0.46 416.87 0.46 412.04 0.46 409.26-1.11L409.26-1.11 409.26-4.63Q413.15-2.65 417.09-2.65L417.09-2.65Q423.24-2.65 423.24-6.47L423.24-6.47Q423.24-7.94 421.95-8.99 420.66-10.04 417.14-11.36 413.63-12.69 412.09-13.68L412.09-13.68Q409.18-15.65 409.18-18.76 409.18-21.87 411.66-23.62 414.14-25.38 418.34-25.38 422.55-25.38 426.35-23.76L426.35-23.76 425.01-20.68Q421.29-22.22 418.42-22.22 415.55-22.22 414.17-21.4 412.8-20.58 412.8-19.06L412.8-19.06Q412.8-18.1 413.29-17.38 413.78-16.66 414.92-16.01 416.06-15.37 419.32-14.18L419.32-14.18Q423.77-12.54 425.32-10.91 426.88-9.28 426.88-6.8Z" opacity="1" transform="matrix(1,0,0,1,0,0)" fill="black" class="slogan-text-1" id="SvgjsPath2220"></path></svg></g></svg></g></svg></g></svg></g><g transform="matrix(1,0,0,1,0,27.84567995712016)"><svg viewBox="0 0 81.62618049429366 75.60457701520643" height="75.60457701520643" width="81.62618049429366"><g><svg xmlns="http://www.w3.org/2000/svg" xmlns:xlink="http://www.w3.org/1999/xlink" version="1.1" x="0" y="0" viewBox="1.5 5.5 61 56.5" style="enable-background:new 0 0 64 64;" xml:space="preserve" height="75.60457701520643" width="81.62618049429366" class="icon-icon-0" data-fill-palette-color="accent" id="SvgjsSvg2219"><rect x="27" y="34" width="10" height="2" fill="black"></rect><rect x="26" y="30" width="12" height="2" fill="black"></rect><polygon points="32,5.5 30.5,9 33.5,9 " fill="black"></polygon><rect x="29" y="11" width="6" height="2" fill="black"></rect><path d="M13.6 49l-1.4 7h39.6l-1.4-7C49.1 42.6 43.5 38 37 38H27C20.5 38 14.9 42.6 13.6 49zM17 54h-2v-2h2V54zM47 52h2v2h-2V52zM43 52h2v2h-2V52zM39 52h2v2h-2V52zM35 52h2v2h-2V52zM31 52h2v2h-2V52zM27 52h2v2h-2V52zM23 52h2v2h-2V52zM19 52h2v2h-2V52z" fill="black"></path><polygon points="59,58 5,58 5,60 3,60 3,62 61,62 61,60 59,60 " fill="black"></polygon><polygon points="62.5,34.2 45,23 45,23 44.9,23 33.5,15.8 33.3,15 30.7,15 30.5,15.8 19.1,23 19,23 19,23 1.5,34.2 2.5,35.8 3,35.5   3,39 5,39 5,34.3 7,33 7,37 9,37 9,31.8 11,30.5 11,34 13,34 13,29.2 15,28 15,31 17,31 17,26.7 19,25.4 19,28 21,28 21,24.1   23,22.9 23,25 25,25 25,21.6 29.5,18.8 27,26.2 27,28 37,28 37,26.2 34.5,18.8 39,21.6 39,25 41,25 41,22.9 43,24.1 43,28 45,28   45,25.4 47,26.7 47,31 49,31 49,28 51,29.2 51,34 53,34 53,30.5 55,31.8 55,37 57,37 57,33 59,34.3 59,39 61,39 61,35.5 61.5,35.8   " fill="black"></polygon></svg></g></svg></g></svg></g><defs><mask></mask></defs></svg><rect width="395.52" height="100.25828183715869" fill="black" stroke="none" visibility="hidden"></rect></g></mask><linearGradient x1="0" x2="1" y1="0.5" y2="0.5" id="230416f9-999e-464b-bc61-ad737fd0345c"><stop stop-color="#ffa62e" offset="0"></stop><stop stop-color="#f71b3d" offset="1"></stop></linearGradient><rect width="395.52" height="100.25828183715869" fill="url(#230416f9-999e-464b-bc61-ad737fd0345c)" mask="url(#4f36ecd8-94fb-4dff-a347-df22246e2d23)" data-fill-palette-color="primary"></rect></svg><rect width="395.52" height="100.25828183715869" fill="none" stroke="none" visibility="hidden"></rect></g></svg></g></svg>